<?xml version="1.0" encoding="UTF-8"?>
<svg id="Layer_1" data-name="Layer 1" xmlns="http://www.w3.org/2000/svg" viewBox="0 0 2059.88 1296.62">
  <defs>
    <style>
      .cls-1 {
        fill: #231f20;
      }

      .cls-2 {
        fill: none;
        stroke: #ed1c24;
        stroke-linecap: round;
        stroke-linejoin: round;
        stroke-width: 38.09px;
      }
    </style>
  </defs>
  <g>
    <path class="cls-2" d="M1248,622.5c.84-11.07,13.97-17.9,24.88-15.82,10.9,2.08,19.51,10.35,26.55,18.93,14.48,17.66,25.37,38.36,42.1,53.91,16.73,15.54,42.35,25.03,62.56,14.41"/>
    <path class="cls-2" d="M1231.4,733.1c50.73-48.24,101.46-96.48,152.19-144.72"/>
  </g>
  <path class="cls-1" d="M750.58,567.42c3.75,3.87,5.63,8.67,5.63,14.39v84.06c0,23.83-6.57,42.48-19.69,55.93-13.14,13.46-31.83,20.19-56.1,20.19s-42.91-6.73-55.93-20.19c-13.02-13.46-19.52-32.1-19.52-55.93v-84.06c0-5.73,1.87-10.53,5.62-14.39,3.75-3.86,8.5-5.79,14.23-5.79s10.48,1.94,14.23,5.79c3.75,3.87,5.62,8.67,5.62,14.39v84.06c0,13.46,2.98,23.44,8.93,29.95,5.97,6.51,14.9,9.76,26.81,9.76s21.18-3.25,27.14-9.76c5.96-6.51,8.93-16.49,8.93-29.95v-84.06c0-5.73,1.87-10.53,5.63-14.39,3.74-3.86,8.48-5.79,14.22-5.79s10.48,1.94,14.23,5.79Z"/>
  <path class="cls-1" d="M550.56,741.99c-5.74,0-10.48-1.94-14.22-5.79-3.76-3.87-5.63-8.67-5.63-14.39v-84.06c0-13.46-2.98-23.44-8.93-29.95-5.96-6.51-15.01-9.76-27.14-9.76-11.91,0-20.85,3.25-26.81,9.76-5.96,6.51-8.93,16.49-8.93,29.95v84.06c0,5.73-1.87,10.53-5.62,14.39-3.75,3.86-8.5,5.79-14.23,5.79-5.74,0-10.48-1.94-14.23-5.79-3.75-3.87-5.62-8.67-5.62-14.39v-84.06c0-23.83,6.5-42.48,19.52-55.93,13.02-13.46,31.66-20.19,55.93-20.19,24.26,0,42.96,6.73,56.1,20.19,13.12,13.46,19.69,32.1,19.69,55.93v84.06c0,5.73-1.88,10.53-5.63,14.39-3.75,3.86-8.5,5.79-14.23,5.79Z"/>
  <path class="cls-1" d="M884.78,708.22c2.54,2.98,3.81,6.9,3.81,11.75,0,5.96-3.25,10.98-9.76,15.06-6.51,4.07-13.85,6.12-22.01,6.12-13.68,0-25.21-2.92-34.58-8.77-9.37-5.84-14.06-18.25-14.06-37.22v-91.35h-15.22c-5.3,0-9.72-1.77-13.24-5.3-3.53-3.52-5.3-7.94-5.3-13.24s1.77-9.31,5.3-12.73c3.52-3.43,7.94-5.14,13.24-5.14h15.22v-21.18c0-5.74,1.93-10.53,5.78-14.39,3.87-3.86,8.66-5.79,14.4-5.79s10.15,1.94,13.9,5.79c3.75,3.87,5.62,8.66,5.62,14.39v21.18h23.5c5.3,0,9.71,1.77,13.24,5.3,3.52,3.53,5.3,7.94,5.3,13.24s-1.78,9.33-5.3,12.74c-3.53,3.42-7.94,5.12-13.24,5.12h-23.5v89.68c0,4.64,1.21,8,3.65,10.1,2.42,2.1,5.73,3.14,9.93,3.14,1.77,0,4.19-.44,7.28-1.33,2.64-1.1,5.17-1.65,7.61-1.65,3.09,0,5.9,1.49,8.44,4.47Z"/>
  <path class="cls-1" d="M1026.75,566.41c4.52,3.75,6.79,8.17,6.79,13.24,0,6.84-1.77,11.97-5.3,15.39-3.53,3.43-7.72,5.14-12.57,5.14-3.31,0-7.06-.77-11.25-2.32-.66-.22-2.15-.66-4.47-1.33-2.32-.66-4.8-.99-7.44-.99-5.74,0-11.25,1.78-16.55,5.3-5.29,3.53-9.65,8.89-13.07,16.06-3.43,7.17-5.14,15.72-5.14,25.65v78.43c0,5.74-1.87,10.54-5.62,14.39-3.75,3.87-8.5,5.79-14.23,5.79s-10.48-1.93-14.23-5.79c-3.75-3.86-5.62-8.66-5.62-14.39v-136.68c0-5.73,1.87-10.53,5.62-14.39,3.75-3.86,8.5-5.79,14.23-5.79s10.48,1.94,14.23,5.79c3.75,3.87,5.62,8.67,5.62,14.39v4.31c5.08-9.04,12.36-15.94,21.85-20.68,9.48-4.74,19.63-7.11,30.44-7.11,6.63,0,12.19,1.87,16.71,5.62Z"/>
  <path class="cls-1" d="M1197.35,658.92c-3.97,3.31-8.6,4.96-13.9,4.96h-109.21c2.65,13.02,8.71,23.22,18.2,30.61,9.49,7.4,20.19,11.09,32.11,11.09,9.04,0,16.1-.83,21.18-2.48,5.07-1.66,9.1-3.42,12.07-5.3,2.98-1.87,5.02-3.14,6.13-3.81,3.97-1.99,7.71-2.98,11.24-2.98,4.64,0,8.61,1.66,11.92,4.96,3.3,3.31,4.96,7.18,4.96,11.59,0,5.96-3.09,11.37-9.27,16.22-6.18,5.08-14.45,9.37-24.82,12.9-10.38,3.53-20.86,5.3-31.44,5.3-18.54,0-34.7-3.86-48.49-11.59-13.79-7.72-24.44-18.36-31.94-31.94-7.5-13.56-11.24-28.84-11.24-45.83,0-18.96,3.97-35.62,11.91-49.97,7.94-14.34,18.41-25.32,31.44-32.93,13.01-7.62,26.91-11.42,41.69-11.42s28.3,3.97,41.21,11.91c12.9,7.94,23.21,18.64,30.95,32.1,7.72,13.46,11.58,28.02,11.58,43.69-.22,5.3-2.31,9.59-6.29,12.9ZM1074.58,630.79h86.71v-2.32c-.88-9.27-5.4-17.21-13.56-23.82-8.17-6.63-17.44-9.93-27.81-9.93-25.59,0-40.7,12.03-45.34,36.07Z"/>
  <path class="cls-1" d="M1535.61,708.47c2.54,2.98,3.81,6.9,3.81,11.75,0,5.96-3.25,10.98-9.76,15.06-6.51,4.07-13.85,6.12-22.01,6.12-13.68,0-25.21-2.92-34.58-8.77-9.37-5.84-14.06-18.25-14.06-37.22v-91.35h-15.22c-5.3,0-9.72-1.77-13.24-5.3-3.53-3.52-5.3-7.94-5.3-13.24s1.77-9.31,5.3-12.73c3.52-3.43,7.94-5.14,13.24-5.14h15.22v-21.18c0-5.74,1.93-10.53,5.78-14.39,3.87-3.86,8.66-5.79,14.4-5.79s10.15,1.94,13.9,5.79c3.75,3.87,5.62,8.66,5.62,14.39v21.18h23.5c5.3,0,9.71,1.77,13.24,5.3,3.52,3.53,5.3,7.94,5.3,13.24s-1.78,9.33-5.3,12.74c-3.53,3.42-7.94,5.12-13.24,5.12h-23.5v89.68c0,4.64,1.21,8,3.65,10.1,2.42,2.1,5.73,3.14,9.93,3.14,1.77,0,4.19-.44,7.28-1.33,2.64-1.1,5.17-1.65,7.61-1.65,3.09,0,5.9,1.49,8.44,4.47Z"/>
  <path class="cls-1" d="M1677.58,566.66c4.52,3.75,6.79,8.17,6.79,13.24,0,6.84-1.77,11.97-5.3,15.39-3.53,3.43-7.72,5.14-12.57,5.14-3.31,0-7.06-.77-11.25-2.32-.66-.22-2.15-.66-4.47-1.33-2.32-.66-4.8-.99-7.44-.99-5.74,0-11.25,1.78-16.55,5.3-5.29,3.53-9.65,8.89-13.07,16.06-3.43,7.17-5.14,15.72-5.14,25.65v78.43c0,5.74-1.87,10.54-5.62,14.39-3.75,3.87-8.5,5.79-14.23,5.79s-10.48-1.93-14.23-5.79c-3.75-3.86-5.62-8.66-5.62-14.39v-136.68c0-5.73,1.87-10.53,5.62-14.39,3.75-3.86,8.5-5.79,14.23-5.79s10.48,1.94,14.23,5.79c3.75,3.87,5.62,8.67,5.62,14.39v4.31c5.08-9.04,12.36-15.94,21.85-20.68,9.48-4.74,19.63-7.11,30.44-7.11,6.63,0,12.19,1.87,16.71,5.62Z"/>
</svg>