<?xml version="1.0" encoding="UTF-8"?>
<svg id="Layer_1" data-name="Layer 1" xmlns="http://www.w3.org/2000/svg" viewBox="0 0 2059.88 1296.62">
  <defs>
    <style>
      .cls-1, .cls-2 {
        fill: #fff;
      }

      .cls-3 {
        fill: none;
        stroke-linecap: round;
        stroke-linejoin: round;
        stroke-width: 46.45px;
      }

      .cls-3, .cls-2 {
        stroke: #fff;
      }

      .cls-4 {
        fill: #ed1c24;
        stroke: #ed1c24;
        stroke-width: 25.3px;
      }

      .cls-4, .cls-2 {
        stroke-miterlimit: 10;
      }

      .cls-2 {
        stroke-width: 21.35px;
      }
    </style>
  </defs>
  <circle class="cls-4" cx="1029.94" cy="648.3" r="472.08"/>
  <g>
    <path class="cls-1" d="M977.15,811.47c-4.75,3.96-10.31,5.94-16.65,5.94h-130.85c3.17,15.59,10.44,27.82,21.8,36.68,11.36,8.86,24.19,13.28,38.47,13.28,10.84,0,19.29-1,25.38-2.98,6.08-1.98,10.9-4.1,14.48-6.34,3.56-2.25,6-3.77,7.33-4.56,4.77-2.38,9.25-3.57,13.48-3.57,5.55,0,10.32,1.98,14.28,5.96,3.96,3.96,5.94,8.58,5.94,13.87,0,7.15-3.71,13.63-11.1,19.44-7.4,6.08-17.32,11.24-29.74,15.46-12.44,4.23-24.98,6.34-37.66,6.34-22.21,0-41.58-4.62-58.1-13.88-16.52-9.25-29.28-22-38.26-38.26-9-16.25-13.48-34.55-13.48-54.91,0-22.74,4.75-42.68,14.27-59.87,9.52-17.19,22.07-30.34,37.68-39.47,15.59-9.11,32.24-13.67,49.95-13.67s33.91,4.75,49.37,14.27c15.46,9.52,27.82,22.34,37.07,38.47,9.25,16.13,13.88,33.57,13.88,52.33-.27,6.34-2.77,11.5-7.54,15.47ZM830.06,777.76h103.88v-2.78c-1.06-11.1-6.48-20.61-16.25-28.55-9.78-7.92-20.89-11.88-33.32-11.88-30.66,0-48.77,14.4-54.31,43.22Z"/>
    <path class="cls-2" d="M883.27,413.73c23.77,0,44.2,8.55,61.3,25.65,16.89,16.89,25.44,37.32,25.44,61.09v110.5c0,2.29-.21,4.38-.83,6.05-.63,1.67-1.67,3.13-3.34,4.59-2.71,3.13-6.46,4.59-11.26,4.59s-8.55-1.67-11.26-4.8c-2.71-3.13-4.17-6.67-4.17-10.42v-110.5c0-15.64-5.42-28.98-16.47-39.82-11.05-10.84-24.19-16.26-39.41-16.26s-28.36,5.42-39.41,16.26c-10.84,10.84-16.26,24.19-16.26,39.82v110.5c0,4.59-1.46,8.13-4.38,10.63-2.92,3.13-6.67,4.59-11.26,4.59-2.08,0-3.96-.21-5.63-.83-1.67-.63-3.34-1.88-4.8-3.75-2.92-2.29-4.38-5.84-4.38-10.63v-111.76c0-23.35,8.76-43.37,25.85-60.26,16.89-16.89,37.11-25.23,60.67-25.23h-.42Z"/>
    <path class="cls-2" d="M1234.48,413.52c4.8,0,8.34,1.67,11.05,4.8,2.71,3.34,4.38,6.67,4.38,10.63v110.5c0,24.39-8.97,44.62-26.06,61.3-17.51,16.89-38.16,25.65-62.34,25.65s-44.83-8.34-62.13-25.02c-8.55-8.34-15.01-17.51-19.39-27.52-4.38-10.01-6.88-21.06-6.88-32.94v-111.96c0-4.17,1.46-7.71,4.59-10.63,3.13-3.13,6.88-4.8,11.05-4.8,4.8,0,8.55,1.67,11.47,5,.21.63.42,1.04.42,1.25,1.04,1.46,1.88,2.92,2.29,4.59.42,1.67.63,3.34.63,5v110.5c0,15.22,5.63,28.36,17.1,39.41,11.47,11.05,25.02,16.68,40.66,16.68,7.92,0,15.22-1.46,21.89-4.17,6.67-2.71,12.93-6.88,18.97-12.51,11.05-10.84,16.68-23.98,16.68-39.41v-110.5c0-3.96,1.46-7.51,4.59-10.63,3.54-3.34,6.73-5.21,10.49-5.21h.56Z"/>
    <path class="cls-3" d="M1075.63,764.11c1.03-13.49,17.04-21.83,30.33-19.29,13.29,2.54,23.79,12.62,32.37,23.09,17.65,21.53,30.93,46.78,51.33,65.73,20.4,18.95,51.64,30.52,76.29,17.57"/>
  </g>
  <path class="cls-3" d="M1055.38,898.97c61.86-58.82,123.73-117.65,185.59-176.47"/>
</svg><?xml version="1.0" encoding="UTF-8"?>
<svg id="Layer_1" data-name="Layer 1" xmlns="http://www.w3.org/2000/svg" viewBox="0 0 2059.88 1296.62">
  <defs>
    <style>
      .cls-1, .cls-2 {
        fill: #fff;
      }

      .cls-3 {
        fill: none;
        stroke-linecap: round;
        stroke-linejoin: round;
        stroke-width: 46.45px;
      }

      .cls-3, .cls-2 {
        stroke: #fff;
      }

      .cls-4 {
        fill: #ed1c24;
        stroke: #ed1c24;
        stroke-width: 25.3px;
      }

      .cls-4, .cls-2 {
        stroke-miterlimit: 10;
      }

      .cls-2 {
        stroke-width: 21.35px;
      }
    </style>
  </defs>
  <circle class="cls-4" cx="1029.94" cy="648.3" r="472.08"/>
  <g>
    <path class="cls-1" d="M977.15,811.47c-4.75,3.96-10.31,5.94-16.65,5.94h-130.85c3.17,15.59,10.44,27.82,21.8,36.68,11.36,8.86,24.19,13.28,38.47,13.28,10.84,0,19.29-1,25.38-2.98,6.08-1.98,10.9-4.1,14.48-6.34,3.56-2.25,6-3.77,7.33-4.56,4.77-2.38,9.25-3.57,13.48-3.57,5.55,0,10.32,1.98,14.28,5.96,3.96,3.96,5.94,8.58,5.94,13.87,0,7.15-3.71,13.63-11.1,19.44-7.4,6.08-17.32,11.24-29.74,15.46-12.44,4.23-24.98,6.34-37.66,6.34-22.21,0-41.58-4.62-58.1-13.88-16.52-9.25-29.28-22-38.26-38.26-9-16.25-13.48-34.55-13.48-54.91,0-22.74,4.75-42.68,14.27-59.87,9.52-17.19,22.07-30.34,37.68-39.47,15.59-9.11,32.24-13.67,49.95-13.67s33.91,4.75,49.37,14.27c15.46,9.52,27.82,22.34,37.07,38.47,9.25,16.13,13.88,33.57,13.88,52.33-.27,6.34-2.77,11.5-7.54,15.47ZM830.06,777.76h103.88v-2.78c-1.06-11.1-6.48-20.61-16.25-28.55-9.78-7.92-20.89-11.88-33.32-11.88-30.66,0-48.77,14.4-54.31,43.22Z"/>
    <path class="cls-2" d="M883.27,413.73c23.77,0,44.2,8.55,61.3,25.65,16.89,16.89,25.44,37.32,25.44,61.09v110.5c0,2.29-.21,4.38-.83,6.05-.63,1.67-1.67,3.13-3.34,4.59-2.71,3.13-6.46,4.59-11.26,4.59s-8.55-1.67-11.26-4.8c-2.71-3.13-4.17-6.67-4.17-10.42v-110.5c0-15.64-5.42-28.98-16.47-39.82-11.05-10.84-24.19-16.26-39.41-16.26s-28.36,5.42-39.41,16.26c-10.84,10.84-16.26,24.19-16.26,39.82v110.5c0,4.59-1.46,8.13-4.38,10.63-2.92,3.13-6.67,4.59-11.26,4.59-2.08,0-3.96-.21-5.63-.83-1.67-.63-3.34-1.88-4.8-3.75-2.92-2.29-4.38-5.84-4.38-10.63v-111.76c0-23.35,8.76-43.37,25.85-60.26,16.89-16.89,37.11-25.23,60.67-25.23h-.42Z"/>
    <path class="cls-2" d="M1234.48,413.52c4.8,0,8.34,1.67,11.05,4.8,2.71,3.34,4.38,6.67,4.38,10.63v110.5c0,24.39-8.97,44.62-26.06,61.3-17.51,16.89-38.16,25.65-62.34,25.65s-44.83-8.34-62.13-25.02c-8.55-8.34-15.01-17.51-19.39-27.52-4.38-10.01-6.88-21.06-6.88-32.94v-111.96c0-4.17,1.46-7.71,4.59-10.63,3.13-3.13,6.88-4.8,11.05-4.8,4.8,0,8.55,1.67,11.47,5,.21.63.42,1.04.42,1.25,1.04,1.46,1.88,2.92,2.29,4.59.42,1.67.63,3.34.63,5v110.5c0,15.22,5.63,28.36,17.1,39.41,11.47,11.05,25.02,16.68,40.66,16.68,7.92,0,15.22-1.46,21.89-4.17,6.67-2.71,12.93-6.88,18.97-12.51,11.05-10.84,16.68-23.98,16.68-39.41v-110.5c0-3.96,1.46-7.51,4.59-10.63,3.54-3.34,6.73-5.21,10.49-5.21h.56Z"/>
    <path class="cls-3" d="M1075.63,764.11c1.03-13.49,17.04-21.83,30.33-19.29,13.29,2.54,23.79,12.62,32.37,23.09,17.65,21.53,30.93,46.78,51.33,65.73,20.4,18.95,51.64,30.52,76.29,17.57"/>
  </g>
  <path class="cls-3" d="M1055.38,898.97c61.86-58.82,123.73-117.65,185.59-176.47"/>
</svg>